<?xml version="1.0" standalone="no"?>
<!DOCTYPE svg PUBLIC "-//W3C//DTD SVG 20010904//EN"
 "http://www.w3.org/TR/2001/REC-SVG-20010904/DTD/svg10.dtd">
<svg version="1.0" xmlns="http://www.w3.org/2000/svg"
 width="1984.000000pt" height="1984.000000pt" viewBox="0 0 1984.000000 1984.000000"
 preserveAspectRatio="xMidYMid meet">
<metadata>
Created by potrace 1.14, written by Peter Selinger 2001-2017
</metadata>
<g transform="translate(0.000000,1984.000000) scale(0.100000,-0.100000)"
fill="#000000" stroke="none">
<path d="M9745 14203 c-647 -42 -1228 -296 -1720 -751 -207 -191 -1664 -1658
-1746 -1757 -610 -741 -799 -1680 -522 -2595 119 -393 325 -744 631 -1075 191
-207 1658 -1664 1757 -1746 741 -610 1680 -799 2595 -522 393 119 744 325
1075 631 207 191 1664 1658 1746 1757 610 741 799 1680 522 2595 -119 393
-325 744 -631 1075 -191 207 -1658 1664 -1757 1746 -561 462 -1248 688 -1950
642z m336 -2017 c87 -19 180 -59 259 -111 97 -65 1705 -1679 1753 -1760 73
-124 107 -249 107 -398 0 -158 -40 -288 -125 -417 -65 -97 -1679 -1705 -1760
-1753 -124 -73 -249 -107 -398 -107 -158 0 -288 40 -417 125 -97 65 -1705
1679 -1753 1760 -73 124 -107 249 -107 398 0 158 40 288 125 417 65 97 1679
1705 1760 1753 74 44 151 74 230 92 80 17 245 18 326 1z"/>
</g>
</svg>
